<svg width="866" height="651" viewBox="0 0 866 651" fill="none" xmlns="http://www.w3.org/2000/svg">
<g opacity="0.4" filter="url(#filter0_d_527_12644)">
<ellipse cx="435.5" cy="415" rx="313.5" ry="303" fill="white"/>
<path d="M748.5 415C748.5 582.05 608.381 717.5 435.5 717.5C262.619 717.5 122.5 582.05 122.5 415C122.5 247.95 262.619 112.5 435.5 112.5C608.381 112.5 748.5 247.95 748.5 415Z" stroke="#DDE0E5"/>
</g>
<g opacity="0.4" filter="url(#filter1_d_527_12644)">
<ellipse cx="433" cy="415.5" rx="393" ry="379.5" fill="white"/>
<path d="M825.5 415.5C825.5 624.8 649.788 794.5 433 794.5C216.212 794.5 40.5 624.8 40.5 415.5C40.5 206.2 216.212 36.5 433 36.5C649.788 36.5 825.5 206.2 825.5 415.5Z" stroke="#DDE0E5"/>
</g>
<defs>
<filter id="filter0_d_527_12644" x="82" y="76" width="707" height="686" filterUnits="userSpaceOnUse" color-interpolation-filters="sRGB">
<feFlood flood-opacity="0" result="BackgroundImageFix"/>
<feColorMatrix in="SourceAlpha" type="matrix" values="0 0 0 0 0 0 0 0 0 0 0 0 0 0 0 0 0 0 127 0" result="hardAlpha"/>
<feOffset dy="4"/>
<feGaussianBlur stdDeviation="20"/>
<feComposite in2="hardAlpha" operator="out"/>
<feColorMatrix type="matrix" values="0 0 0 0 0.298039 0 0 0 0 0.686275 0 0 0 0 0.313726 0 0 0 0.45 0"/>
<feBlend mode="normal" in2="BackgroundImageFix" result="effect1_dropShadow_527_12644"/>
<feBlend mode="normal" in="SourceGraphic" in2="effect1_dropShadow_527_12644" result="shape"/>
</filter>
<filter id="filter1_d_527_12644" x="0" y="0" width="866" height="839" filterUnits="userSpaceOnUse" color-interpolation-filters="sRGB">
<feFlood flood-opacity="0" result="BackgroundImageFix"/>
<feColorMatrix in="SourceAlpha" type="matrix" values="0 0 0 0 0 0 0 0 0 0 0 0 0 0 0 0 0 0 127 0" result="hardAlpha"/>
<feOffset dy="4"/>
<feGaussianBlur stdDeviation="20"/>
<feComposite in2="hardAlpha" operator="out"/>
<feColorMatrix type="matrix" values="0 0 0 0 0.298039 0 0 0 0 0.686275 0 0 0 0 0.313726 0 0 0 0.45 0"/>
<feBlend mode="normal" in2="BackgroundImageFix" result="effect1_dropShadow_527_12644"/>
<feBlend mode="normal" in="SourceGraphic" in2="effect1_dropShadow_527_12644" result="shape"/>
</filter>
</defs>
</svg>
