<svg width="270" height="56" viewBox="0 0 270 56" fill="none" xmlns="http://www.w3.org/2000/svg">
<path fill-rule="evenodd" clip-rule="evenodd" d="M32.5816 15.9342H34.3857V15.9342L49.7438 15.9342L47.2594 21.2619C46.5504 22.7823 45.0365 24.1306 43.053 24.1306L34.3857 24.1306V24.1306H32.5816V24.1306L17.2236 24.1306L19.708 18.803C20.417 17.2825 21.9308 15.9342 23.9144 15.9342L32.5816 15.9342V15.9342Z" fill="#4EC95C"/>
<path fill-rule="evenodd" clip-rule="evenodd" d="M25.1936 8.19641H50.4811C52.4647 8.19641 53.9786 6.84811 54.6876 5.32766L57.1719 0H26.1469H19.975C17.9914 0 16.4775 1.34829 15.7685 2.86875L13.2842 8.19641L0.362017 35.908C-0.658413 38.6926 0.565157 40.0658 2.94355 40.0658H7.46388L20.9871 11.0652C22.577 7.65575 23.2485 8.19641 25.1936 8.19641Z" fill="#7266F9"/>
<path fill-rule="evenodd" clip-rule="evenodd" d="M30.4016 31.8689H16.4828C14.4992 31.8689 12.9853 33.2172 12.2763 34.7376L9.79199 40.0653H29.4483H35.6203C37.6038 40.0653 39.1177 38.717 39.8267 37.1966L42.3111 31.8689L42.8956 30.6153H42.8956L44.8344 26.4576H44.8344L45.2044 25.664C44.5701 26.0095 43.8633 26.4576 43.0518 26.4576H40.314H35.7937L34.6081 29.0001C33.0183 32.4095 32.3467 31.8689 30.4016 31.8689H30.4016ZM43.2545 28.9902C43.2573 28.9224 43.2582 28.856 43.2572 28.791C43.2582 28.856 43.2573 28.9224 43.2545 28.9902Z" fill="#FFA33C"/>
<path d="M58.4609 39.7018V16.2976H75.4689V20.804H64.312V25.7102H74.1243V30.2892H64.312V39.7018H58.4609L58.4609 39.7018ZM74.8148 39.7018L83.7549 16.2976H90.0784L99.0185 39.7018H92.913L90.8052 34.3959H82.9917L80.9202 39.7018H74.8148ZM83.7912 30.0712H90.0057L86.8803 21.9306L83.7912 30.0712ZM101.999 39.7018V16.2976H113.701C116.463 16.2976 118.498 17.0245 119.806 18.4781C121.114 19.9318 121.768 21.8822 121.768 24.3292C121.768 25.904 121.369 27.285 120.569 28.4722C119.77 29.6593 118.679 30.5436 117.298 31.1251C117.638 31.3916 117.91 31.6884 118.116 32.0155C118.322 32.3426 118.546 32.7968 118.788 33.3783L121.55 39.7018H115.445L112.828 33.7417C112.61 33.2329 112.332 32.8635 111.993 32.6333C111.653 32.4031 111.169 32.288 110.539 32.288H107.85V39.7018H101.999ZM107.85 27.7817H112.174C113.313 27.7817 114.203 27.497 114.845 26.9276C115.487 26.3583 115.808 25.4921 115.808 24.3292C115.808 21.9791 114.682 20.804 112.429 20.804H107.85V27.7817V27.7817ZM124.749 39.7018V16.2976H130.527L136.887 29.2717L143.21 16.2976H148.952V39.7018H143.101V26.2553L138.486 35.7042H135.251L130.6 26.2553V39.7018H124.749ZM151.932 39.7018L160.872 16.2976H167.196L176.136 39.7018H170.031L167.923 34.3959H160.109L158.038 39.7018H151.932ZM160.909 30.0712H167.123L163.998 21.9306L160.909 30.0712ZM188.783 40.0652C184.737 40.0652 181.66 39.0416 179.552 36.9943C177.444 34.9471 176.39 32.0579 176.39 28.3268C176.39 24.4261 177.468 21.3855 179.625 19.205C181.781 17.0245 184.955 15.9342 189.146 15.9342C190.576 15.9342 191.866 16.019 193.017 16.1886C194.168 16.3582 195.264 16.6126 196.306 16.9518V21.967C195.264 21.5793 194.18 21.3128 193.053 21.1674C191.926 21.0221 190.77 20.9494 189.582 20.9494C187.063 20.9494 185.227 21.549 184.077 22.7483C182.926 23.9476 182.35 25.8071 182.35 28.3268C182.35 30.6284 182.896 32.3304 183.986 33.4328C185.076 34.5352 186.687 35.0864 188.819 35.0864C190.224 35.0864 191.533 34.8926 192.744 34.5049V30.0712H187.693V26.4007H197.65V37.9937C196.827 38.5267 195.682 39.0052 194.216 39.4292C192.75 39.8532 190.939 40.0652 188.783 40.0652V40.0652ZM211.206 40.0652C209.025 40.0652 207.13 39.7139 205.518 39.0113C203.907 38.3087 202.659 37.2669 201.775 35.8859C200.891 34.5049 200.449 32.809 200.449 30.798V16.2976H206.3V30.2529C206.3 31.8762 206.724 33.0876 207.572 33.8871C208.42 34.6866 209.631 35.0864 211.206 35.0864C212.781 35.0864 213.992 34.6866 214.84 33.8871C215.688 33.0876 216.112 31.8762 216.112 30.2529V16.2976H221.963V30.798C221.963 32.809 221.521 34.5049 220.637 35.8859C219.752 37.2669 218.505 38.3087 216.893 39.0113C215.282 39.7139 213.386 40.0652 211.206 40.0652ZM225.488 39.7018V16.2976H237.19C239.952 16.2976 241.987 17.0245 243.296 18.4781C244.604 19.9318 245.258 21.8822 245.258 24.3292C245.258 25.904 244.858 27.285 244.059 28.4722C243.259 29.6593 242.169 30.5436 240.788 31.1251C241.127 31.3916 241.4 31.6884 241.606 32.0155C241.812 32.3426 242.036 32.7968 242.278 33.3783L245.04 39.7018H238.935L236.318 33.7417C236.1 33.2329 235.821 32.8635 235.482 32.6333C235.143 32.4031 234.658 32.288 234.029 32.288H231.339V39.7018H225.488ZM231.339 27.7817H235.664C236.803 27.7817 237.693 27.497 238.335 26.9276C238.977 26.3583 239.298 25.4921 239.298 24.3292C239.298 21.9791 238.172 20.804 235.918 20.804H231.339V27.7817V27.7817ZM258.814 40.0652C256.633 40.0652 254.737 39.7139 253.126 39.0113C251.515 38.3087 250.267 37.2669 249.383 35.8859C248.499 34.5049 248.057 32.809 248.057 30.798V16.2976H253.908V30.2529C253.908 31.8762 254.332 33.0876 255.18 33.8871C256.028 34.6866 257.239 35.0864 258.814 35.0864C260.389 35.0864 261.6 34.6866 262.448 33.8871C263.296 33.0876 263.72 31.8762 263.72 30.2529V16.2976H269.571V30.798C269.571 32.809 269.129 34.5049 268.244 35.8859C267.36 37.2669 266.112 38.3087 264.501 39.0113C262.89 39.7139 260.994 40.0652 258.814 40.0652Z" fill="#332C2B"/>
<path d="M193.521 55.7974L198.507 42.744H202.034L207.02 55.7974H203.615L202.439 52.838H198.081L196.926 55.7974H193.521ZM198.527 50.426H201.993L200.25 45.8857L198.527 50.426ZM208.682 55.7974V42.744H215.107C216.148 42.744 217.006 42.9501 217.681 43.3622C218.357 43.7744 218.86 44.3318 219.191 45.0344C219.522 45.7371 219.688 46.5276 219.688 47.4059C219.688 48.2978 219.499 49.0883 219.12 49.7774C218.742 50.4666 218.205 51.0037 217.509 51.3888C216.813 51.7739 215.985 51.9665 215.026 51.9665H211.945V55.7974H208.682ZM211.945 49.4531H214.296C214.986 49.4531 215.502 49.2639 215.847 48.8856C216.192 48.5072 216.364 48.0072 216.364 47.3856C216.364 46.71 216.205 46.1864 215.888 45.8148C215.57 45.4432 215.073 45.2574 214.398 45.2574H211.945V49.4531ZM227.066 56C224.944 56 223.33 55.4595 222.222 54.3785C221.114 53.2975 220.56 51.6151 220.56 49.3315C220.56 46.9127 221.114 45.1763 222.222 44.1223C223.33 43.0683 224.944 42.5413 227.066 42.5413C229.187 42.5413 230.802 43.0683 231.91 44.1223C233.018 45.1763 233.572 46.9127 233.572 49.3315C233.572 51.6151 233.018 53.2975 231.91 54.3785C230.802 55.4595 229.187 56 227.066 56ZM227.066 53.2232C228.16 53.2232 228.961 52.909 229.468 52.2807C229.975 51.6523 230.228 50.6693 230.228 49.3315C230.228 47.8721 229.975 46.8418 229.468 46.2404C228.961 45.6391 228.16 45.3385 227.066 45.3385C225.958 45.3385 225.151 45.6391 224.644 46.2404C224.137 46.8418 223.884 47.8721 223.884 49.3315C223.884 50.6693 224.137 51.6523 224.644 52.2807C225.151 52.909 225.958 53.2232 227.066 53.2232ZM238.052 55.7973V45.2574H234.221V42.744H245.146V45.2574H241.315V55.7973H238.052ZM246.605 55.7973V42.744H256.233V45.2574H249.869V47.9937H255.483V50.5476H249.869V53.284H256.233V55.7973H246.605ZM257.794 55.7973V42.744H261.057V47.8113L265.557 42.744H269.287L264.625 48.0748L269.57 55.7973H266.084L262.598 50.1625L261.057 51.8449V55.7973H257.794Z" fill="#7266F9"/>
</svg>
