<svg width="124" height="20" viewBox="0 0 124 20" fill="none" xmlns="http://www.w3.org/2000/svg">
<path fill-rule="evenodd" clip-rule="evenodd" d="M14.9864 8.11475H15.8163V8.11475L22.8808 8.11475L21.7381 10.5654C21.4119 11.2648 20.7156 11.885 19.8031 11.885L15.8163 11.885V11.885H14.9864V11.885L7.92188 11.885L9.06465 9.43434C9.39078 8.73495 10.0872 8.11475 10.9996 8.11475L14.9864 8.11475V8.11475Z" fill="#4EC95C"/>
<path fill-rule="evenodd" clip-rule="evenodd" d="M11.5888 4.55543H23.2209C24.1333 4.55543 24.8297 3.93523 25.1558 3.23583L26.2986 0.785156H12.0273H9.1883C8.27588 0.785156 7.5795 1.40536 7.25337 2.10475L6.11059 4.55543L0.166524 17.3025C-0.302864 18.5834 0.259967 19.2151 1.35401 19.2151H3.43332L9.65388 5.87503C10.3852 4.30673 10.6941 4.55543 11.5888 4.55543Z" fill="#7266F9"/>
<path fill-rule="evenodd" clip-rule="evenodd" d="M13.9842 15.4445H7.58161C6.66919 15.4445 5.97281 16.0647 5.64668 16.7641L4.50391 19.2148H13.5457H16.3847C17.2971 19.2148 17.9935 18.5946 18.3196 17.8952L19.4624 15.4445L19.7313 14.8679H19.7313L20.6231 12.9554H20.6231L20.7933 12.5903C20.5015 12.7493 20.1764 12.9554 19.8031 12.9554H18.5438H16.4645L15.9191 14.1249C15.1878 15.6932 14.8788 15.4445 13.9842 15.4445H13.9842ZM19.8964 14.1203C19.8977 14.0892 19.8981 14.0586 19.8976 14.0287C19.8981 14.0586 19.8977 14.0892 19.8964 14.1203Z" fill="#FFA33C"/>
<path d="M26.8916 19.0476V8.28191H34.7151V10.3548H29.583V12.6116H34.0966V14.7179H29.583V19.0476H26.8916L26.8916 19.0476ZM34.4142 19.0476L38.5266 8.28191H41.4353L45.5477 19.0476H42.7393L41.7697 16.6069H38.1755L37.2227 19.0476H34.4142ZM38.5433 14.6176H41.4019L39.9642 10.873L38.5433 14.6176ZM46.9185 19.0476V8.28191H52.3013C53.5718 8.28191 54.508 8.61625 55.1098 9.28493C55.7116 9.95361 56.0125 10.8507 56.0125 11.9764C56.0125 12.7008 55.8286 13.336 55.4608 13.8821C55.0931 14.4282 54.5916 14.835 53.9563 15.1024C54.1123 15.225 54.2377 15.3615 54.3324 15.512C54.4272 15.6624 54.5303 15.8714 54.6417 16.1389L55.9122 19.0476H53.1037L51.9001 16.306C51.7998 16.072 51.6717 15.9021 51.5156 15.7962C51.3596 15.6903 51.1367 15.6374 50.847 15.6374H49.6099V19.0476H46.9185ZM49.6099 13.5645H51.5992C52.123 13.5645 52.5326 13.4335 52.8279 13.1716C53.1233 12.9097 53.2709 12.5113 53.2709 11.9764C53.2709 10.8953 52.7527 10.3548 51.7162 10.3548H49.6099V13.5645V13.5645ZM57.3833 19.0476V8.28191H60.0413L62.9667 14.2499L65.8755 8.28191H68.5168V19.0476H65.8253V12.8624L63.7023 17.2088H62.2145L60.0747 12.8624V19.0476H57.3833ZM69.8876 19.0476L73.9999 8.28191H76.9087L81.021 19.0476H78.2126L77.243 16.6069H73.6489L72.696 19.0476H69.8876ZM74.0166 14.6176H76.8752L75.4376 10.873L74.0166 14.6176ZM86.8385 19.2148C84.9774 19.2148 83.562 18.7439 82.5924 17.8022C81.6228 16.8605 81.138 15.5315 81.138 13.8152C81.138 12.0209 81.634 10.6223 82.6259 9.61927C83.6177 8.61625 85.0777 8.11475 87.0057 8.11475C87.6632 8.11475 88.2567 8.15375 88.786 8.23176C89.3154 8.30978 89.8197 8.42679 90.2989 8.58282V10.8898C89.8197 10.7114 89.321 10.5889 88.8028 10.522C88.2845 10.4551 87.7524 10.4217 87.2063 10.4217C86.0473 10.4217 85.203 10.6975 84.6737 11.2492C84.1443 11.8008 83.8796 12.6562 83.8796 13.8152C83.8796 14.874 84.1304 15.6569 84.6319 16.1639C85.1334 16.671 85.8745 16.9246 86.8552 16.9246C87.5016 16.9246 88.1034 16.8354 88.6607 16.6571V14.6176H86.337V12.9292H90.9174V18.2619C90.5385 18.5071 90.012 18.7272 89.3377 18.9222C88.6635 19.1173 87.8304 19.2148 86.8385 19.2148V19.2148ZM97.1529 19.2148C96.1498 19.2148 95.2778 19.0532 94.5367 18.73C93.7956 18.4068 93.2216 17.9276 92.8148 17.2923C92.408 16.6571 92.2047 15.877 92.2047 14.952V8.28191H94.8961V14.7012C94.8961 15.4479 95.0911 16.0051 95.4812 16.3729C95.8712 16.7407 96.4285 16.9246 97.1529 16.9246C97.8773 16.9246 98.4345 16.7407 98.8246 16.3729C99.2146 16.0051 99.4097 15.4479 99.4097 14.7012V8.28191H102.101V14.952C102.101 15.877 101.898 16.6571 101.491 17.2923C101.084 17.9276 100.51 18.4068 99.7691 18.73C99.028 19.0532 98.1559 19.2148 97.1529 19.2148ZM103.723 19.0476V8.28191H109.105C110.376 8.28191 111.312 8.61625 111.914 9.28493C112.516 9.95361 112.817 10.8507 112.817 11.9764C112.817 12.7008 112.633 13.336 112.265 13.8821C111.897 14.4282 111.396 14.835 110.76 15.1024C110.916 15.225 111.042 15.3615 111.137 15.512C111.231 15.6624 111.334 15.8714 111.446 16.1389L112.716 19.0476H109.908L108.704 16.306C108.604 16.072 108.476 15.9021 108.32 15.7962C108.164 15.6903 107.941 15.6374 107.651 15.6374H106.414V19.0476H103.723ZM106.414 13.5645H108.403C108.927 13.5645 109.337 13.4335 109.632 13.1716C109.927 12.9097 110.075 12.5113 110.075 11.9764C110.075 10.8953 109.557 10.3548 108.52 10.3548H106.414V13.5645V13.5645ZM119.052 19.2148C118.049 19.2148 117.177 19.0532 116.436 18.73C115.695 18.4068 115.121 17.9276 114.714 17.2923C114.307 16.6571 114.104 15.877 114.104 14.952V8.28191H116.795V14.7012C116.795 15.4479 116.99 16.0051 117.38 16.3729C117.77 16.7407 118.328 16.9246 119.052 16.9246C119.776 16.9246 120.334 16.7407 120.724 16.3729C121.114 16.0051 121.309 15.4479 121.309 14.7012V8.28191H124V14.952C124 15.877 123.797 16.6571 123.39 17.2923C122.983 17.9276 122.409 18.4068 121.668 18.73C120.927 19.0532 120.055 19.2148 119.052 19.2148Z" fill="white"/>
</svg>
