<svg width="259" height="56" viewBox="0 0 259 56" fill="none" xmlns="http://www.w3.org/2000/svg">
<path fill-rule="evenodd" clip-rule="evenodd" d="M31.052 15.1874H32.7715V15.1874L47.4094 15.1874L45.0416 20.2653C44.3658 21.7144 42.9229 22.9995 41.0323 22.9995L32.7715 22.9995V22.9995H31.052V22.9995L16.4141 22.9995L18.7819 17.9216C19.4577 16.4725 20.9006 15.1874 22.7912 15.1874L31.052 15.1874V15.1874Z" fill="#4EC95C"/>
<path fill-rule="evenodd" clip-rule="evenodd" d="M24.0123 7.81211H48.1143C50.0048 7.81211 51.4477 6.52703 52.1235 5.07787L54.4914 0H24.9209H19.0384C17.1478 0 15.7049 1.28508 15.0292 2.73424L12.6613 7.81211L0.345043 34.2244C-0.627542 36.8784 0.538659 38.1873 2.80554 38.1873H7.11393L20.0031 10.5463C21.5184 7.29681 22.1585 7.81211 24.0123 7.81211Z" fill="#7266F9"/>
<path fill-rule="evenodd" clip-rule="evenodd" d="M28.9754 30.3751H15.7091C13.8186 30.3751 12.3756 31.6602 11.6999 33.1093L9.33203 38.1872H28.0668H33.9493C35.8399 38.1872 37.2828 36.9021 37.9585 35.453L40.3264 30.3751L40.8835 29.1803H40.8835L42.7314 25.2175H42.7314L43.0841 24.4611C42.4795 24.7905 41.8059 25.2175 41.0324 25.2175H38.423H34.1146L32.9846 27.6408C31.4693 30.8904 30.8292 30.3751 28.9754 30.3751H28.9754ZM41.2256 27.6313C41.2283 27.5667 41.2291 27.5035 41.2281 27.4415C41.2291 27.5035 41.2283 27.5668 41.2256 27.6313Z" fill="#FFA33C"/>
<path d="M194.902 55.1998C194.064 55.1998 193.272 55.1354 192.525 55.0066C191.778 54.8649 191.141 54.6717 190.613 54.427V51.4326C191.192 51.7031 191.836 51.922 192.545 52.0895C193.253 52.2569 193.916 52.3406 194.535 52.3406C195.179 52.3406 195.662 52.2891 195.983 52.1861C196.318 52.0702 196.486 51.819 196.486 51.4326C196.486 51.1622 196.389 50.9497 196.196 50.7951C196.016 50.6406 195.726 50.4989 195.327 50.3701C194.94 50.2413 194.432 50.0803 193.8 49.8871C192.963 49.6167 192.3 49.3205 191.811 48.9985C191.321 48.6765 190.967 48.2837 190.748 47.82C190.542 47.3564 190.439 46.7897 190.439 46.12C190.439 44.8965 190.87 43.9692 191.733 43.3381C192.609 42.6942 193.904 42.3722 195.616 42.3722C196.299 42.3722 197.001 42.4301 197.722 42.546C198.456 42.662 199.049 42.7907 199.499 42.9324V45.9461C198.894 45.7014 198.315 45.5276 197.761 45.4245C197.207 45.3215 196.685 45.27 196.196 45.27C195.629 45.27 195.146 45.3151 194.747 45.4052C194.348 45.4954 194.148 45.7272 194.148 46.1007C194.148 46.4227 194.316 46.6609 194.65 46.8155C194.998 46.9571 195.61 47.1439 196.486 47.3757C197.503 47.6462 198.276 47.9746 198.804 48.361C199.345 48.7473 199.712 49.1981 199.905 49.7133C200.098 50.2156 200.195 50.7887 200.195 51.4326C200.195 52.566 199.757 53.4804 198.881 54.1759C198.006 54.8585 196.679 55.1998 194.902 55.1998ZM207.337 55.1998C206.178 55.1998 205.154 55.013 204.265 54.6395C203.389 54.2532 202.7 53.6929 202.198 52.9588C201.696 52.2118 201.445 51.2974 201.445 50.2156V42.5654H205.077V49.8292C205.077 51.3489 205.83 52.1088 207.337 52.1088C208.058 52.1088 208.612 51.922 208.998 51.5485C209.385 51.1751 209.578 50.6019 209.578 49.8292V42.5654H213.21V50.2156C213.21 51.2974 212.959 52.2118 212.456 52.9588C211.967 53.6929 211.278 54.2532 210.389 54.6395C209.513 55.013 208.496 55.1998 207.337 55.1998ZM214.861 55.0066V42.5654H221.274C222.292 42.5654 223.129 42.7714 223.786 43.1836C224.455 43.5828 224.951 44.1302 225.273 44.8257C225.595 45.5211 225.756 46.2939 225.756 47.1439C225.756 48.0197 225.57 48.7989 225.196 49.4815C224.823 50.164 224.294 50.6985 223.612 51.0849C222.929 51.4713 222.124 51.6645 221.197 51.6645H218.492V55.0066H214.861ZM218.492 48.8826H220.366C220.933 48.8826 221.352 48.7216 221.622 48.3996C221.905 48.0776 222.047 47.6591 222.047 47.1439C222.047 46.5901 221.918 46.1522 221.661 45.8302C221.403 45.5082 221.004 45.3473 220.463 45.3473H218.492V48.8826ZM226.727 55.0066V42.5654H233.141C234.158 42.5654 234.996 42.7714 235.652 43.1836C236.322 43.5828 236.818 44.1302 237.14 44.8257C237.462 45.5211 237.623 46.2939 237.623 47.1439C237.623 48.0197 237.436 48.7989 237.063 49.4815C236.689 50.164 236.161 50.6985 235.479 51.0849C234.796 51.4713 233.991 51.6645 233.064 51.6645H230.359V55.0066H226.727ZM230.359 48.8826H232.233C232.8 48.8826 233.218 48.7216 233.489 48.3996C233.772 48.0776 233.914 47.6591 233.914 47.1439C233.914 46.5901 233.785 46.1522 233.527 45.8302C233.27 45.5082 232.871 45.3473 232.33 45.3473H230.359V48.8826ZM238.594 55.0066V42.5654H242.226V52.2247H247.828V55.0066H238.594ZM250.104 55.0066V50.4474L245.622 42.5654H249.408L251.92 47.2598L254.431 42.5654H258.218L253.736 50.4474V55.0066H250.104Z" fill="#FFA33C"/>
<path d="M55.7207 37.8408V15.534H71.9313V19.8291H61.2974V24.5052H70.6497V28.8696H61.2974V37.8408H55.7207L55.7207 37.8408ZM71.3078 37.8408L79.8287 15.534H85.8557L94.3766 37.8408H88.5575L86.5485 32.7837H79.1013L77.1269 37.8408H71.3078ZM79.8633 28.6618H85.7864L82.8076 20.9029L79.8633 28.6618ZM97.217 37.8408V15.534H108.37C111.003 15.534 112.943 16.2268 114.19 17.6123C115.437 18.9978 116.06 20.8567 116.06 23.189C116.06 24.69 115.679 26.0062 114.917 27.1377C114.155 28.2692 113.116 29.1121 111.8 29.6663C112.123 29.9203 112.383 30.2032 112.579 30.5149C112.775 30.8266 112.989 31.2596 113.22 31.8138L115.852 37.8408H110.033L107.539 32.1602C107.331 31.6753 107.066 31.3231 106.742 31.1038C106.419 30.8844 105.957 30.7747 105.357 30.7747H102.794V37.8408H97.217ZM102.794 26.4796H106.916C108.001 26.4796 108.85 26.2083 109.461 25.6656C110.073 25.1229 110.379 24.2974 110.379 23.189C110.379 20.9491 109.306 19.8291 107.158 19.8291H102.794V26.4796V26.4796ZM118.9 37.8408V15.534H124.408L130.469 27.8997L136.496 15.534H141.969V37.8408H136.392V25.0248L131.993 34.0307H128.911L124.477 25.0248V37.8408H118.9ZM144.809 37.8408L153.33 15.534H159.357L167.878 37.8408H162.059L160.05 32.7837H152.603L150.629 37.8408H144.809ZM153.365 28.6618H159.288L156.309 20.9029L153.365 28.6618ZM179.932 38.1872C176.076 38.1872 173.143 37.2116 171.134 35.2603C169.125 33.309 168.121 30.5553 168.121 26.9992C168.121 23.2814 169.148 20.3833 171.204 18.305C173.259 16.2268 176.284 15.1876 180.279 15.1876C181.641 15.1876 182.871 15.2684 183.968 15.4301C185.065 15.5917 186.109 15.8342 187.102 16.1575V20.9375C186.109 20.568 185.076 20.314 184.002 20.1755C182.929 20.0369 181.826 19.9677 180.694 19.9677C178.293 19.9677 176.544 20.5392 175.447 21.6822C174.35 22.8253 173.801 24.5976 173.801 26.9992C173.801 29.1929 174.321 30.8151 175.36 31.8658C176.399 32.9165 177.935 33.4418 179.967 33.4418C181.306 33.4418 182.553 33.2571 183.708 32.8876V28.6618H178.893V25.1633H188.384V36.2129C187.599 36.7209 186.508 37.1769 185.111 37.581C183.714 37.9852 181.988 38.1872 179.932 38.1872V38.1872ZM201.304 38.1872C199.226 38.1872 197.419 37.8524 195.883 37.1827C194.348 36.513 193.158 35.5201 192.315 34.2038C191.473 32.8876 191.051 31.2712 191.051 29.3545V15.534H196.628V28.835C196.628 30.3821 197.032 31.5367 197.84 32.2988C198.648 33.0608 199.803 33.4418 201.304 33.4418C202.805 33.4418 203.96 33.0608 204.768 32.2988C205.576 31.5367 205.98 30.3821 205.98 28.835V15.534H211.557V29.3545C211.557 31.2712 211.135 32.8876 210.292 34.2038C209.45 35.5201 208.26 36.513 206.725 37.1827C205.189 37.8524 203.382 38.1872 201.304 38.1872ZM214.917 37.8408V15.534H226.07C228.703 15.534 230.642 16.2268 231.889 17.6123C233.136 18.9978 233.76 20.8567 233.76 23.189C233.76 24.69 233.379 26.0062 232.617 27.1377C231.855 28.2692 230.816 29.1121 229.499 29.6663C229.823 29.9203 230.082 30.2032 230.279 30.5149C230.475 30.8266 230.688 31.2596 230.919 31.8138L233.552 37.8408H227.733L225.239 32.1602C225.031 31.6753 224.765 31.3231 224.442 31.1038C224.119 30.8844 223.657 30.7747 223.057 30.7747H220.493V37.8408H214.917ZM220.493 26.4796H224.615C225.701 26.4796 226.549 26.2083 227.161 25.6656C227.773 25.1229 228.079 24.2974 228.079 23.189C228.079 20.9491 227.005 19.8291 224.858 19.8291H220.493V26.4796V26.4796ZM246.68 38.1872C244.601 38.1872 242.794 37.8524 241.259 37.1827C239.723 36.513 238.534 35.5201 237.691 34.2038C236.848 32.8876 236.427 31.2712 236.427 29.3545V15.534H242.004V28.835C242.004 30.3821 242.408 31.5367 243.216 32.2988C244.024 33.0608 245.179 33.4418 246.68 33.4418C248.181 33.4418 249.335 33.0608 250.143 32.2988C250.952 31.5367 251.356 30.3821 251.356 28.835V15.534H256.932V29.3545C256.932 31.2712 256.511 32.8876 255.668 34.2038C254.825 35.5201 253.636 36.513 252.101 37.1827C250.565 37.8524 248.758 38.1872 246.68 38.1872Z" fill="#332C2B"/>
</svg>
