<svg width="261" height="57" viewBox="0 0 261 57" fill="none" xmlns="http://www.w3.org/2000/svg">
<path fill-rule="evenodd" clip-rule="evenodd" d="M31.7493 16.2066H33.4797V16.2066L48.2105 16.2066L45.8276 21.3167C45.1476 22.775 43.6955 24.0683 41.793 24.0683L33.4797 24.0683V24.0683H31.7493V24.0682L17.0186 24.0683L19.4014 18.9582C20.0815 17.4998 21.5335 16.2066 23.4361 16.2066L31.7493 16.2066V16.2066Z" fill="#4EC95C"/>
<path fill-rule="evenodd" clip-rule="evenodd" d="M24.6646 8.78453H48.9194C50.822 8.78453 52.274 7.4913 52.954 6.03295L55.3369 0.922882H25.579H19.6591C17.7566 0.922882 16.3045 2.21611 15.6245 3.67446L13.2416 8.78453L0.847231 35.3644C-0.131522 38.0352 1.04207 39.3523 3.32333 39.3523H7.65904L20.63 11.5361C22.1549 8.26596 22.799 8.78453 24.6646 8.78453Z" fill="#7266F9"/>
<path fill-rule="evenodd" clip-rule="evenodd" d="M29.6595 31.4906H16.3091C14.4066 31.4906 12.9545 32.7839 12.2745 34.2422L9.8916 39.3522H28.7452H34.665C36.5676 39.3522 38.0196 38.059 38.6996 36.6007L41.0825 31.4906L41.6432 30.2882H41.6432L43.5028 26.3003H43.5028L43.8577 25.5391C43.2493 25.8706 42.5714 26.3003 41.793 26.3003H39.1671H34.8314L33.6942 28.739C32.1693 32.0092 31.5251 31.4906 29.6595 31.4906H29.6595ZM41.9874 28.7295C41.9902 28.6644 41.991 28.6008 41.99 28.5384C41.991 28.6008 41.9902 28.6644 41.9874 28.7295Z" fill="#FFA33C"/>
<path d="M223.992 56.1451V43.625H233.479V46.4245H227.647V48.4658H232.76V51.3043H227.647V53.3456H233.479V56.1451H223.992ZM234.643 56.1451V43.625H240.242C241.525 43.625 242.62 43.8388 243.528 44.2665C244.435 44.6813 245.128 45.3553 245.608 46.2884C246.087 47.2086 246.327 48.4334 246.327 49.9628C246.327 52.1143 245.802 53.6826 244.752 54.6676C243.703 55.6526 242.199 56.1451 240.242 56.1451H234.643ZM238.298 53.3456H239.775C240.385 53.3456 240.897 53.2613 241.311 53.0928C241.726 52.9114 242.044 52.5809 242.264 52.1013C242.484 51.6088 242.594 50.896 242.594 49.9628C242.594 49.0296 242.491 48.3103 242.283 47.8048C242.089 47.2864 241.784 46.93 241.37 46.7356C240.955 46.5282 240.423 46.4245 239.775 46.4245H238.298V53.3456ZM253.518 56.3395C252.352 56.3395 251.321 56.1516 250.427 55.7757C249.546 55.3869 248.852 54.8231 248.347 54.0843C247.842 53.3326 247.589 52.4124 247.589 51.3237V43.625H251.244V50.9349C251.244 52.4642 252.002 53.2289 253.518 53.2289C254.244 53.2289 254.801 53.041 255.19 52.6651C255.579 52.2893 255.774 51.7125 255.774 50.9349V43.625H259.428V51.3237C259.428 52.4124 259.176 53.3326 258.67 54.0843C258.178 54.8231 257.484 55.3869 256.59 55.7757C255.709 56.1516 254.685 56.3395 253.518 56.3395Z" fill="#4EC95C"/>
<path d="M56.5732 39.0037V16.5554H72.8866V20.8777H62.1853V25.5835H71.5969V29.9756H62.1853V39.0037H56.5732L56.5732 39.0037ZM72.2592 39.0037L80.8341 16.5554H86.8994L95.4743 39.0037H89.6183L87.5965 33.9145H80.1021L78.1152 39.0037H72.2592ZM80.869 29.7664H86.8296L83.8319 21.9583L80.869 29.7664ZM98.3326 39.0037V16.5554H109.557C112.206 16.5554 114.158 17.2525 115.413 18.6468C116.668 20.0412 117.295 21.9118 117.295 24.2589C117.295 25.7694 116.912 27.094 116.145 28.2327C115.378 29.3714 114.332 30.2196 113.008 30.7773C113.333 31.0329 113.594 31.3176 113.792 31.6313C113.99 31.945 114.204 32.3807 114.437 32.9385L117.086 39.0037H111.23L108.72 33.287C108.511 32.799 108.244 32.4447 107.918 32.2239C107.593 32.0031 107.128 31.8927 106.524 31.8927H103.945V39.0037H98.3326ZM103.945 27.5704H108.093C109.185 27.5704 110.039 27.2973 110.655 26.7512C111.271 26.2051 111.579 25.3744 111.579 24.2589C111.579 22.0048 110.498 20.8777 108.337 20.8777H103.945V27.5704V27.5704ZM120.154 39.0037V16.5554H125.696L131.796 28.9996L137.861 16.5554H143.369V39.0037H137.757V26.1064L133.33 35.1694H130.227L125.766 26.1064V39.0037H120.154ZM146.227 39.0037L154.802 16.5554H160.867L169.442 39.0037H163.586L161.564 33.9145H154.07L152.083 39.0037H146.227ZM154.837 29.7664H160.797L157.8 21.9583L154.837 29.7664ZM181.573 39.3523C177.692 39.3523 174.741 38.3704 172.719 36.4068C170.697 34.4431 169.686 31.672 169.686 28.0933C169.686 24.3519 170.72 21.4355 172.788 19.344C174.857 17.2525 177.901 16.2068 181.921 16.2068C183.292 16.2068 184.53 16.2881 185.634 16.4508C186.737 16.6135 187.789 16.8575 188.788 17.1828V21.9932C187.789 21.6214 186.749 21.3657 185.668 21.2263C184.588 21.0869 183.478 21.0172 182.339 21.0172C179.923 21.0172 178.162 21.5923 177.059 22.7426C175.955 23.8929 175.403 25.6765 175.403 28.0933C175.403 30.3009 175.926 31.9334 176.971 32.9908C178.017 34.0481 179.562 34.5768 181.607 34.5768C182.955 34.5768 184.21 34.3909 185.372 34.0191V29.7664H180.527V26.2458H190.078V37.3654C189.288 37.8766 188.19 38.3356 186.784 38.7423C185.378 39.1489 183.641 39.3523 181.573 39.3523V39.3523ZM203.08 39.3523C200.988 39.3523 199.17 39.0153 197.625 38.3414C196.079 37.6675 194.882 36.6682 194.034 35.3436C193.186 34.0191 192.762 32.3924 192.762 30.4636V16.5554H198.374V29.9407C198.374 31.4977 198.781 32.6596 199.594 33.4265C200.407 34.1933 201.569 34.5768 203.08 34.5768C204.59 34.5768 205.752 34.1933 206.566 33.4265C207.379 32.6596 207.786 31.4977 207.786 29.9407V16.5554H213.398V30.4636C213.398 32.3924 212.973 34.0191 212.125 35.3436C211.277 36.6682 210.08 37.6675 208.535 38.3414C206.99 39.0153 205.171 39.3523 203.08 39.3523ZM216.779 39.0037V16.5554H228.003C230.652 16.5554 232.604 17.2525 233.859 18.6468C235.114 20.0412 235.741 21.9118 235.741 24.2589C235.741 25.7694 235.358 27.094 234.591 28.2327C233.824 29.3714 232.778 30.2196 231.454 30.7773C231.779 31.0329 232.041 31.3176 232.238 31.6313C232.436 31.945 232.651 32.3807 232.883 32.9385L235.532 39.0037H229.676L227.166 33.287C226.957 32.799 226.69 32.4447 226.365 32.2239C226.039 32.0031 225.575 31.8927 224.97 31.8927H222.391V39.0037H216.779ZM222.391 27.5704H226.539C227.631 27.5704 228.485 27.2973 229.101 26.7512C229.717 26.2051 230.025 25.3744 230.025 24.2589C230.025 22.0048 228.944 20.8777 226.783 20.8777H222.391V27.5704V27.5704ZM248.743 39.3523C246.652 39.3523 244.833 39.0153 243.288 38.3414C241.743 37.6675 240.546 36.6682 239.698 35.3436C238.849 34.0191 238.425 32.3924 238.425 30.4636V16.5554H244.037V29.9407C244.037 31.4977 244.444 32.6596 245.257 33.4265C246.071 34.1933 247.233 34.5768 248.743 34.5768C250.254 34.5768 251.416 34.1933 252.229 33.4265C253.042 32.6596 253.449 31.4977 253.449 29.9407V16.5554H259.061V30.4636C259.061 32.3924 258.637 34.0191 257.789 35.3436C256.941 36.6682 255.744 37.6675 254.198 38.3414C252.653 39.0153 250.835 39.3523 248.743 39.3523Z" fill="#332C2B"/>
</svg>
