<svg width="259" height="56" viewBox="0 0 259 56" fill="none" xmlns="http://www.w3.org/2000/svg">
<path fill-rule="evenodd" clip-rule="evenodd" d="M31.5148 15.1693H33.2322V15.1693L47.8524 15.1693L45.4874 20.241C44.8125 21.6885 43.3713 22.972 41.483 22.972L33.2322 22.972V22.972H31.5148V22.972L16.8945 22.972L19.2595 17.9002C19.9345 16.4528 21.3756 15.1693 23.2639 15.1693L31.5148 15.1693V15.1693Z" fill="#4EC95C"/>
<path fill-rule="evenodd" clip-rule="evenodd" d="M24.4833 7.80266H48.5561C50.4444 7.80266 51.8855 6.51913 52.5604 5.07172L54.9254 0H25.3908H19.5154C17.6271 0 16.1859 1.28352 15.511 2.73093L13.146 7.80266L0.844626 34.183C-0.126783 36.8338 1.03801 38.1411 3.30214 38.1411H7.60532L20.4789 10.5336C21.9924 7.28798 22.6317 7.80266 24.4833 7.80266Z" fill="#7266F9"/>
<path fill-rule="evenodd" clip-rule="evenodd" d="M29.4409 30.3384H16.1907C14.3024 30.3384 12.8612 31.6219 12.1863 33.0693L9.82129 38.1411H28.5334H34.4088C36.2971 38.1411 37.7382 36.8575 38.4132 35.4101L40.7782 30.3384L41.3346 29.1451H41.3346L43.1803 25.187H43.1803L43.5325 24.4316C42.9287 24.7605 42.2559 25.187 41.4833 25.187H38.8771H34.5739L33.4452 27.6075C31.9318 30.8531 31.2924 30.3384 29.4409 30.3384H29.4409ZM41.6763 27.598C41.679 27.5335 41.6798 27.4702 41.6788 27.4083C41.6798 27.4702 41.679 27.5335 41.6763 27.598Z" fill="#FFA33C"/>
<path d="M179.43 54.9655V42.5393H182.961L186.048 48.8488L189.116 42.5393H192.628V54.9655H189V48.7524L187.013 52.843H185.064L183.057 48.7524V54.9655H179.43ZM194.372 54.9655V42.5393H203.788V45.3178H198V47.3438H203.075V50.1609H198V52.1869H203.788V54.9655H194.372ZM204.943 54.9655V42.5393H210.5C211.774 42.5393 212.861 42.7515 213.761 43.176C214.662 43.5877 215.35 44.2566 215.826 45.1827C216.302 46.096 216.54 47.3117 216.54 48.8295C216.54 50.9649 216.019 52.5214 214.977 53.499C213.935 54.4766 212.443 54.9655 210.5 54.9655H204.943ZM208.571 52.1869H210.037C210.642 52.1869 211.15 52.1033 211.562 51.9361C211.973 51.756 212.288 51.428 212.507 50.952C212.726 50.4632 212.835 49.7557 212.835 48.8295C212.835 47.9034 212.732 47.1894 212.526 46.6878C212.333 46.1732 212.031 45.8195 211.62 45.6265C211.208 45.4207 210.68 45.3178 210.037 45.3178H208.571V52.1869ZM217.889 54.9655V42.5393H221.516V54.9655H217.889ZM229.8 55.1584C227.549 55.1584 225.831 54.6053 224.648 53.499C223.465 52.3927 222.873 50.8298 222.873 48.8103C222.873 46.7264 223.452 45.1313 224.609 44.025C225.767 42.9059 227.491 42.3463 229.781 42.3463C230.552 42.3463 231.241 42.4042 231.845 42.52C232.45 42.6358 233.029 42.7965 233.582 43.0024V46.1668C232.476 45.678 231.292 45.4336 230.031 45.4336C228.861 45.4336 227.993 45.7037 227.427 46.244C226.861 46.7714 226.578 47.6268 226.578 48.8103C226.578 49.968 226.873 50.8041 227.465 51.3186C228.07 51.8203 228.938 52.0712 230.07 52.0712C230.687 52.0712 231.286 52.0133 231.864 51.8975C232.456 51.7817 233.042 51.6016 233.62 51.3572V54.541C233.067 54.7339 232.482 54.8818 231.864 54.9847C231.26 55.1005 230.572 55.1584 229.8 55.1584ZM234.216 54.9655L238.982 42.5393H242.822L247.588 54.9655H243.806L242.764 52.322H239.021L237.998 54.9655H234.216ZM239.503 49.7171H242.282L240.893 46.0703L239.503 49.7171ZM248.942 54.9655V42.5393H252.569V52.1869H258.165V54.9655H248.942Z" fill="#4EC95C"/>
<path d="M56.1533 37.7951V15.5153H72.3443V19.8052H61.7233V24.4756H71.0642V28.8347H61.7233V37.7951H56.1533L56.1533 37.7951ZM71.7215 37.7951L80.2322 15.5153H86.2519L94.7625 37.7951H88.9504L86.9438 32.7441H79.5056L77.5337 37.7951H71.7215ZM80.2668 28.6272H86.1827L83.2074 20.8777L80.2668 28.6272ZM97.5994 37.7951V15.5153H108.739C111.369 15.5153 113.306 16.2072 114.551 17.591C115.797 18.9749 116.42 20.8315 116.42 23.161C116.42 24.6602 116.039 25.9748 115.278 27.1049C114.517 28.2351 113.479 29.0769 112.164 29.6305C112.487 29.8842 112.747 30.1667 112.943 30.4781C113.139 30.7894 113.352 31.2219 113.583 31.7754L116.212 37.7951H110.4L107.909 32.1214C107.701 31.637 107.436 31.2853 107.113 31.0662C106.79 30.8471 106.329 30.7375 105.729 30.7375H103.169V37.7951H97.5994ZM103.169 26.4476H107.286C108.37 26.4476 109.218 26.1766 109.829 25.6346C110.44 25.0926 110.746 24.2681 110.746 23.161C110.746 20.9238 109.673 19.8052 107.528 19.8052H103.169V26.4476V26.4476ZM119.256 37.7951V15.5153H124.757L130.812 27.8661L136.831 15.5153H142.297V37.7951H136.727V24.9946L132.334 33.9896H129.255L124.826 24.9946V37.7951H119.256ZM145.134 37.7951L153.645 15.5153H159.665L168.175 37.7951H162.363L160.357 32.7441H152.918L150.946 37.7951H145.134ZM153.68 28.6272H159.595L156.62 20.8777L153.68 28.6272ZM180.215 38.1411C176.363 38.1411 173.434 37.1666 171.427 35.2177C169.421 33.2688 168.417 30.5184 168.417 26.9666C168.417 23.2533 169.444 20.3587 171.497 18.2829C173.549 16.2072 176.571 15.1693 180.561 15.1693C181.921 15.1693 183.15 15.25 184.245 15.4115C185.341 15.5729 186.384 15.8151 187.376 16.138V20.9123C186.384 20.5432 185.352 20.2895 184.28 20.1511C183.207 20.0128 182.106 19.9436 180.976 19.9436C178.577 19.9436 176.83 20.5144 175.735 21.6561C174.639 22.7977 174.091 24.5679 174.091 26.9666C174.091 29.1576 174.61 30.7779 175.648 31.8273C176.686 32.8767 178.22 33.4014 180.249 33.4014C181.587 33.4014 182.832 33.2169 183.986 32.8479V28.6272H179.177V25.133H188.656V36.1691C187.872 36.6765 186.782 37.132 185.387 37.5356C183.991 37.9393 182.267 38.1411 180.215 38.1411V38.1411ZM201.56 38.1411C199.485 38.1411 197.68 37.8067 196.146 37.1378C194.612 36.4689 193.425 35.4772 192.583 34.1625C191.741 32.8479 191.32 31.2334 191.32 29.3191V15.5153H196.89V28.8001C196.89 30.3454 197.294 31.4986 198.101 32.2598C198.908 33.0209 200.061 33.4014 201.56 33.4014C203.06 33.4014 204.213 33.0209 205.02 32.2598C205.827 31.4986 206.231 30.3454 206.231 28.8001V15.5153H211.801V29.3191C211.801 31.2334 211.38 32.8479 210.538 34.1625C209.696 35.4772 208.508 36.4689 206.975 37.1378C205.441 37.8067 203.636 38.1411 201.56 38.1411ZM215.157 37.7951V15.5153H226.297C228.926 15.5153 230.863 16.2072 232.109 17.591C233.354 18.9749 233.977 20.8315 233.977 23.161C233.977 24.6602 233.596 25.9748 232.835 27.1049C232.074 28.2351 231.036 29.0769 229.722 29.6305C230.045 29.8842 230.304 30.1667 230.5 30.4781C230.696 30.7894 230.909 31.2219 231.14 31.7754L233.769 37.7951H227.957L225.466 32.1214C225.259 31.637 224.994 31.2853 224.671 31.0662C224.348 30.8471 223.886 30.7375 223.287 30.7375H220.727V37.7951H215.157ZM220.727 26.4476H224.844C225.928 26.4476 226.775 26.1766 227.386 25.6346C227.998 25.0926 228.303 24.2681 228.303 23.161C228.303 20.9238 227.231 19.8052 225.086 19.8052H220.727V26.4476V26.4476ZM246.881 38.1411C244.806 38.1411 243.001 37.8067 241.467 37.1378C239.933 36.4689 238.745 35.4772 237.904 34.1625C237.062 32.8479 236.641 31.2334 236.641 29.3191V15.5153H242.211V28.8001C242.211 30.3454 242.614 31.4986 243.422 32.2598C244.229 33.0209 245.382 33.4014 246.881 33.4014C248.38 33.4014 249.534 33.0209 250.341 32.2598C251.148 31.4986 251.552 30.3454 251.552 28.8001V15.5153H257.122V29.3191C257.122 31.2334 256.701 32.8479 255.859 34.1625C255.017 35.4772 253.829 36.4689 252.296 37.1378C250.762 37.8067 248.957 38.1411 246.881 38.1411Z" fill="#332C2B"/>
</svg>
