<svg width="164" height="25" viewBox="0 0 164 25" fill="none" xmlns="http://www.w3.org/2000/svg">
<path fill-rule="evenodd" clip-rule="evenodd" d="M19.7805 9.67432H20.8759V9.67433L30.2004 9.67432L28.692 12.909C28.2616 13.8321 27.3424 14.6507 26.1381 14.6507L20.8759 14.6507V14.6507H19.7805V14.6507L10.4561 14.6507L11.9644 11.4161C12.3949 10.4929 13.314 9.67432 14.5183 9.67432L19.7805 9.67432V9.67432Z" fill="#4EC95C"/>
<path fill-rule="evenodd" clip-rule="evenodd" d="M15.2961 4.97638H30.6492C31.8535 4.97638 32.7726 4.15777 33.2031 3.23464L34.7114 0H15.8748H12.1276C10.9233 0 10.0042 0.818605 9.57371 1.74173L8.06537 4.97638L0.219795 21.8013C-0.39975 23.4919 0.34313 24.3256 1.78715 24.3256H4.53163L12.7422 6.71811C13.7074 4.64813 14.1152 4.97638 15.2961 4.97638Z" fill="#7266F9"/>
<path fill-rule="evenodd" clip-rule="evenodd" d="M18.4573 19.3489H10.0066C8.80229 19.3489 7.88313 20.1675 7.45268 21.0906L5.94434 24.3253H17.8785H21.6257C22.8301 24.3253 23.7492 23.5067 24.1797 22.5836L25.688 19.3489L26.0429 18.5878H26.0429L27.22 16.0635H27.22L27.4447 15.5817C27.0596 15.7915 26.6305 16.0635 26.1377 16.0635H24.4755H21.7311L21.0112 17.6072C20.046 19.6772 19.6382 19.3489 18.4573 19.3489H18.4573ZM26.2608 17.6011C26.2625 17.56 26.2631 17.5197 26.2624 17.4802C26.2631 17.5197 26.2625 17.56 26.2608 17.6011Z" fill="#FFA33C"/>
<path d="M35.4941 24.1046V9.89496H45.8204V12.631H39.0466V15.6097H45.004V18.3899H39.0466V24.1046H35.4941L35.4941 24.1046ZM45.4232 24.1046L50.8511 9.89496H54.6904L60.1183 24.1046H56.4114L55.1317 20.8832H50.3878L49.1301 24.1046H45.4232ZM50.8732 18.2575H54.6463L52.7487 13.315L50.8732 18.2575ZM61.9276 24.1046V9.89496H69.0324C70.7093 9.89496 71.945 10.3363 72.7393 11.2188C73.5336 12.1014 73.9308 13.2856 73.9308 14.7713C73.9308 15.7274 73.6881 16.5658 73.2026 17.2866C72.7172 18.0074 72.0553 18.5443 71.2168 18.8973C71.4228 19.0592 71.5882 19.2393 71.7133 19.4379C71.8383 19.6365 71.9744 19.9123 72.1215 20.2654L73.7984 24.1046H70.0915L68.5029 20.486C68.3705 20.1771 68.2013 19.9528 67.9954 19.813C67.7894 19.6733 67.4952 19.6034 67.1128 19.6034H65.48V24.1046H61.9276ZM65.48 16.8674H68.1057C68.7971 16.8674 69.3376 16.6946 69.7275 16.3489C70.1173 16.0032 70.3122 15.4773 70.3122 14.7713C70.3122 13.3444 69.6282 12.631 68.2602 12.631H65.48V16.8674V16.8674ZM75.7401 24.1046V9.89496H79.2484L83.1097 17.772L86.9489 9.89496H90.4351V24.1046H86.8827V15.9407L84.0805 21.6775H82.1168L79.2925 15.9407V24.1046H75.7401ZM92.2444 24.1046L97.6723 9.89496H101.512L106.939 24.1046H103.233L101.953 20.8832H97.209L95.9513 24.1046H92.2444ZM97.6944 18.2575H101.467L99.5699 13.315L97.6944 18.2575ZM114.618 24.3253C112.161 24.3253 110.293 23.7038 109.014 22.4608C107.734 21.2178 107.094 19.4637 107.094 17.1984C107.094 14.8301 107.749 12.984 109.058 11.6601C110.367 10.3363 112.294 9.67432 114.839 9.67432C115.707 9.67432 116.49 9.7258 117.189 9.82877C117.887 9.93174 118.553 10.0862 119.185 10.2921V13.337C118.553 13.1017 117.895 12.9399 117.211 12.8516C116.527 12.7634 115.824 12.7192 115.103 12.7192C113.574 12.7192 112.459 13.0833 111.761 13.8114C111.062 14.5396 110.713 15.6685 110.713 17.1984C110.713 18.5958 111.044 19.6292 111.705 20.2985C112.367 20.9677 113.346 21.3024 114.64 21.3024C115.493 21.3024 116.288 21.1847 117.023 20.9494V18.2575H113.956V16.0289H120.002V23.0676C119.502 23.3912 118.807 23.6817 117.917 23.9391C117.027 24.1965 115.927 24.3252 114.618 24.3252V24.3253ZM128.232 24.3253C126.908 24.3253 125.757 24.112 124.779 23.6854C123.801 23.2588 123.043 22.6263 122.506 21.7878C121.969 20.9494 121.701 19.9197 121.701 18.6988V9.89496H125.253V18.3678C125.253 19.3533 125.511 20.0888 126.025 20.5743C126.54 21.0597 127.276 21.3024 128.232 21.3024C129.188 21.3024 129.924 21.0597 130.438 20.5743C130.953 20.0888 131.211 19.3533 131.211 18.3678V9.89496H134.763V18.6988C134.763 19.9197 134.495 20.9494 133.958 21.7878C133.421 22.6263 132.663 23.2588 131.685 23.6854C130.707 24.112 129.556 24.3253 128.232 24.3253ZM136.903 24.1046V9.89496H144.008C145.685 9.89496 146.921 10.3363 147.715 11.2188C148.509 12.1014 148.906 13.2856 148.906 14.7713C148.906 15.7274 148.664 16.5658 148.178 17.2866C147.693 18.0074 147.031 18.5443 146.193 18.8973C146.398 19.0592 146.564 19.2393 146.689 19.4379C146.814 19.6365 146.95 19.9123 147.097 20.2654L148.774 24.1046H145.067L143.479 20.486C143.346 20.1771 143.177 19.9528 142.971 19.813C142.765 19.6733 142.471 19.6034 142.089 19.6034H140.456V24.1046H136.903ZM140.456 16.8674H143.081C143.773 16.8674 144.313 16.6946 144.703 16.3489C145.093 16.0032 145.288 15.4773 145.288 14.7713C145.288 13.3444 144.604 12.631 143.236 12.631H140.456V16.8674V16.8674ZM157.137 24.3253C155.813 24.3253 154.662 24.112 153.683 23.6854C152.705 23.2588 151.948 22.6263 151.411 21.7878C150.874 20.9494 150.605 19.9197 150.605 18.6988V9.89496H154.158V18.3678C154.158 19.3533 154.415 20.0888 154.93 20.5743C155.445 21.0597 156.18 21.3024 157.137 21.3024C158.093 21.3024 158.828 21.0597 159.343 20.5743C159.858 20.0888 160.115 19.3533 160.115 18.3678V9.89496H163.668V18.6988C163.668 19.9197 163.399 20.9494 162.862 21.7878C162.325 22.6263 161.568 23.2588 160.59 23.6854C159.612 24.112 158.46 24.3253 157.137 24.3253Z" fill="#332C2B"/>
</svg>
